<?xml version="1.0"?>
<svg xmlns="http://www.w3.org/2000/svg" height="512px" viewBox="0 -48 440 440" width="512px"><path d="m138.929688 123.550781c18.265624 0 33.070312-14.804687 33.070312-33.066406 0-18.265625-14.804688-33.070313-33.066406-33.070313-18.265625 0-33.070313 14.804688-33.070313 33.070313.019531 18.253906 14.8125 33.046875 33.066407 33.066406zm0 0" fill="#1e90ff"/><path d="m55.257812 183.148438c14.914063-9.84375 34.28125-9.773438 49.121094.1875l43.800782 29.3125c10.863281 7.304687 25.558593 4.714843 33.269531-5.863282l58.589843-79.988281c8.308594-11.476563 21.640626-18.242187 35.808594-18.167969h.410156c14.3125.042969 27.707032 7.058594 35.894532 18.796875l48.539062 68.773438v-166.199219c-.019531-16.5625-13.441406-29.9804688-30-30h-300.691406c-16.5625.0195312-29.9804688 13.4375-30 30v191.589844l55.046875-38.300782c.070313-.042968.140625-.09375.210937-.140624zm83.671876-145.734376c29.3125 0 53.070312 23.757813 53.070312 53.066407 0 29.3125-23.757812 53.070312-53.066406 53.070312-29.3125 0-53.070313-23.757812-53.070313-53.066406.035157-29.296875 23.773438-53.035156 53.066407-53.070313zm0 0" fill="#1e90ff"/><path d="m352.117188 272.480469c5.65625-5.679688 8.78125-13.402344 8.671874-21.417969l-.097656-9.578125c0-.035156 0-.070313 0-.105469v-10.492187l-64.882812-91.925781c-4.5-6.453126-11.859375-10.308594-19.726563-10.332032h-.226562c-7.789063-.042968-15.117188 3.675782-19.683594 9.984375l-58.589844 79.992188c-14.03125 19.242187-40.765625 23.953125-60.527343 10.664062l-43.800782-29.308593c-8.121094-5.453126-18.714844-5.519532-26.902344-.167969l-66.351562 46.160156v5.425781c.0195312 16.5625 13.4375 29.980469 30 30h300.792969c8.015625.023438 15.703125-3.183594 21.324219-8.898437zm0 0" fill="#1e90ff"/><path d="m410 63.449219h-29.3125v177.878906l.101562 9.523437c.140626 13.351563-5.066406 26.207032-14.457031 35.695313-9.390625 9.492187-22.191406 14.832031-35.542969 14.832031h-256.765624v13.449219c.015624 16.558594 13.4375 29.980469 30 30h305.976562c16.5625-.019531 29.980469-13.441406 30-30v-221.382813c-.019531-16.558593-13.441406-29.980468-30-29.996093zm0 0" fill="#1e90ff"/></svg>
